<?xml version="1.0" encoding="UTF-8"?>
<svg version="1.1" xmlns="http://www.w3.org/2000/svg" width="2460" height="1096">
<path d="M0 0 C811.8 0 1623.6 0 2460 0 C2460 361.68 2460 723.36 2460 1096 C1648.2 1096 836.4 1096 0 1096 C0 734.32 0 372.64 0 0 Z " fill="#EEEEEE" transform="translate(0,0)"/>
<path d="M0 0 C0 0.66 0 1.32 0 2 C-0.89460938 2.4125 -1.78921875 2.825 -2.7109375 3.25 C-10.66514152 7.01185502 -17.34113864 11.17203347 -24 17 C-24.66128906 17.51820313 -25.32257813 18.03640625 -26.00390625 18.5703125 C-59.52225196 45.52041673 -71.51751133 96.87664488 -79.625 136.8125 C-80.05247771 138.89263322 -80.48063589 140.9726267 -80.90942383 143.05249023 C-81.81230376 147.43606481 -82.71198939 151.82027559 -83.60888672 156.20507812 C-101.94111344 245.80486691 -101.94111344 245.80486691 -107.23095703 260.81542969 C-107.81676585 262.47949868 -108.39120918 264.14757343 -108.96044922 265.81738281 C-113.46849913 279.03411861 -118.2527399 291.76013561 -125 304 C-125.84304688 305.57394531 -125.84304688 305.57394531 -126.703125 307.1796875 C-137.26547863 326.18205268 -153.30464623 344.15232311 -173 354 C-170.96876565 354.40624687 -168.93752372 354.81245588 -166.90625 355.21850586 C-165.1092501 355.57807101 -163.31237848 355.93827775 -161.515625 356.29907227 C-156.98708827 357.20753133 -152.45749937 358.10802806 -147.921875 358.98046875 C-124.44626815 363.51925668 -101.5517267 369.89675652 -78.953125 377.7265625 C-78.25421143 377.96826172 -77.55529785 378.20996094 -76.83520508 378.45898438 C-75.10312701 379.0668718 -73.37735846 379.69266149 -71.65234375 380.3203125 C-68.75167913 381.06363451 -67.7133244 381.18839402 -65 380 C-62.86930529 378.63588902 -60.84595714 377.24648611 -58.8125 375.75 C-58.20736572 375.31107422 -57.60223145 374.87214844 -56.97875977 374.41992188 C-49.91434045 369.26390869 -42.98226361 363.93101521 -36.05859375 358.58837891 C-34.05131294 357.03959226 -32.04173286 355.49384573 -30.03125 353.94921875 C-27.01921655 351.63490597 -24.0090082 349.31824458 -21 347 C-24.62812927 345.37384644 -28.24465455 344.44455912 -32.12353516 343.60717773 C-42.80259039 341.28188277 -53.21004462 338.21965866 -63.625 334.9375 C-64.35900024 334.70673767 -65.09300049 334.47597534 -65.84924316 334.23822021 C-74.57148088 331.48541682 -83.2363851 328.5964742 -91.859375 325.546875 C-92.66148407 325.26481705 -93.46359314 324.98275909 -94.29000854 324.69215393 C-98.16625919 323.32800306 -102.03473164 321.94700533 -105.89306641 320.53295898 C-107.29047329 320.03568589 -108.68808622 319.53899126 -110.0859375 319.04296875 C-111.3032959 318.59977295 -112.5206543 318.15657715 -113.77490234 317.69995117 C-117.42684494 316.90736075 -118.7913047 317.1869382 -122 319 C-123.82556785 320.47644466 -125.59606275 322.0229919 -127.3125 323.625 C-128.19550781 324.44226563 -129.07851562 325.25953125 -129.98828125 326.1015625 C-130.65214844 326.72804688 -131.31601563 327.35453125 -132 328 C-132.99 327.67 -133.98 327.34 -135 327 C-134.39414063 326.27039063 -133.78828125 325.54078125 -133.1640625 324.7890625 C-114.59908918 301.87455977 -104.0801337 273.27152349 -97.1875 244.875 C-96.98233765 244.04438049 -96.77717529 243.21376099 -96.5657959 242.35797119 C-90.4407483 217.51659311 -85.61261037 192.38706264 -80.6803894 167.28805542 C-56.28282977 43.16775496 -56.28282977 43.16775496 -9.86767578 11.19287109 C6.01072554 1.05145033 24.85999229 -1.92876194 43.3125 2 C61.8737093 7.68254476 74.5832897 18.17341929 84 35 C85.69665358 38.27493599 86.95513156 41.46433406 88 45 C88.29648438 45.96679688 88.59296875 46.93359375 88.8984375 47.9296875 C97.27847584 81.21919762 88.73523924 120.3147578 71.33032227 149.46484375 C46.88624003 188.70340903 6.6331419 213.02807387 -37.640625 223.59765625 C-40.03035895 224.15229084 -42.42099155 224.70306747 -44.8125 225.25 C-46.49388062 225.6380481 -46.49388062 225.6380481 -48.20922852 226.03393555 C-55.46656615 227.63805391 -62.57969974 228.58091606 -70 229 C-70.09152344 230.2684375 -70.18304687 231.536875 -70.27734375 232.84375 C-70.89980502 238.38636164 -72.60111439 243.30223588 -74.5625 248.5 C-74.92182617 249.46196289 -75.28115234 250.42392578 -75.65136719 251.41503906 C-83.95613195 273.2830441 -95.26736443 291.64946928 -111 309 C-108.21041409 311.26610387 -105.71560818 312.64401326 -102.32104492 313.8059082 C-101.39454636 314.12666824 -100.46804779 314.44742828 -99.51347351 314.77790833 C-98.01213615 315.28423042 -98.01213615 315.28423042 -96.48046875 315.80078125 C-94.9060778 316.33906807 -94.9060778 316.33906807 -93.29988098 316.88822937 C-91.06761595 317.64910526 -88.83407095 318.40623469 -86.59936523 319.15991211 C-83.26211192 320.28729479 -79.93070491 321.4307434 -76.59960938 322.57617188 C-63.34851243 327.09373978 -50.05531529 331.0378255 -36.46279907 334.39027405 C-32.63505891 335.33792444 -28.81818378 336.32721125 -25 337.3125 C-22.67446413 337.9064138 -20.3412876 338.4715844 -18 339 C-16.85273437 339.30808594 -15.70546875 339.61617188 -14.5234375 339.93359375 C-9.50143586 340.02824345 -7.35198239 337.88863515 -3.625 334.75 C-2.21061503 333.62698197 -0.79252915 332.50861192 0.62890625 331.39453125 C1.71389404 330.53915771 1.71389404 330.53915771 2.82080078 329.66650391 C8.90937212 325.01037709 15.47771674 321.01338212 22 317 C22.75152344 316.53706543 23.50304688 316.07413086 24.27734375 315.59716797 C55.13371242 296.7672381 88.50926218 284.76875606 125.03515625 292.89453125 C136.06849625 295.75340561 146.08887863 300.93427876 155 308 C155.6084375 308.43441406 156.216875 308.86882812 156.84375 309.31640625 C170.12427708 319.42771664 177.78744608 337.88091351 180 354 C182.05477948 379.01066428 176.57860117 405.03881899 160.1796875 424.59375 C144.28010609 442.14597608 123.84945174 450.07854914 100.49609375 451.32421875 C48.32398316 453.21302489 -1.46456054 427.76771973 -47 405 C-46.67 404.34 -46.34 403.68 -46 403 C-44.9179126 403.37584229 -44.9179126 403.37584229 -43.81396484 403.75927734 C-36.96663166 406.13510263 -30.11540291 408.49918605 -23.25952148 410.85021973 C-19.86607842 412.01414193 -16.47382268 413.18119689 -13.08496094 414.35839844 C34.23680156 430.78280319 88.7225689 443.91735627 136.46484375 422.44140625 C151.58684528 414.9433389 161.98720515 403.41715251 168.17578125 387.6796875 C173.81424694 369.34799335 172.88273802 349.46170676 164.6484375 332.16015625 C156.21392828 316.86966327 142.01109404 306.70464434 125.46069336 301.67358398 C107.39347841 296.7279102 87.82567691 297.53818866 70 303 C69.35756348 303.19303711 68.71512695 303.38607422 68.05322266 303.58496094 C45.77814138 310.52562325 25.95801923 323.77391374 7 337 C6.27296875 337.49902832 5.5459375 337.99805664 4.796875 338.51220703 C1.3627254 340.75631804 1.3627254 340.75631804 -1 344 C-0.06800781 344.04898437 0.86398437 344.09796875 1.82421875 344.1484375 C3.73654297 344.26058594 3.73654297 344.26058594 5.6875 344.375 C6.92886719 344.44460938 8.17023438 344.51421875 9.44921875 344.5859375 C12.92495813 344.84708146 16.31288235 345.36239553 19.75 345.9375 C28.88699894 347.39163972 38.0918304 347.96041684 47.3125 348.625 C49.13219624 348.7599485 50.95185806 348.89536192 52.77148438 349.03125 C57.18061179 349.35951919 61.59015488 349.6815236 66 350 C65.125 355.875 65.125 355.875 64 357 C56.7478735 357.43056378 49.47046128 356.84881922 42.25 356.1875 C40.78203979 356.05601562 40.78203979 356.05601562 39.28442383 355.921875 C32.06790526 355.24976802 24.8756596 354.42589052 17.6875 353.5 C16.30256348 353.32247192 16.30256348 353.32247192 14.88964844 353.14135742 C10.49057348 352.55255202 6.17036847 351.84587842 1.83203125 350.90625 C0.22364261 350.59221022 -1.38698406 350.28933473 -3 350 C-3.67933594 349.87544434 -4.35867188 349.75088867 -5.05859375 349.62255859 C-10.70632934 349.0648447 -13.88434571 351.57048967 -18.20703125 354.97924805 C-19.06683594 355.68734619 -19.92664062 356.39544434 -20.8125 357.125 C-22.66140826 358.5941512 -24.51170026 360.06156245 -26.36328125 361.52734375 C-27.76247803 362.64665283 -27.76247803 362.64665283 -29.18994141 363.78857422 C-34.30201931 367.8116152 -39.59075693 371.59418739 -44.87036133 375.39306641 C-48.92961179 378.3482471 -52.56848588 381.33018629 -56 385 C-13.06401963 398.26171573 30.63758869 409.47666203 75.8125 409.375 C76.72999023 409.37445618 77.64748047 409.37391235 78.59277344 409.37335205 C92.39189663 409.33582833 105.6451836 408.78744311 119 405 C119.79680176 404.78037598 120.59360352 404.56075195 121.41455078 404.33447266 C139.28884812 399.2659633 155.77320389 391.22181453 166 375 C167.67981602 380.03944807 165.10695623 384.31187233 163 389 C160.86645905 392.81818085 158.51231246 396.4216834 156 400 C154.9171875 401.546875 154.9171875 401.546875 153.8125 403.125 C143.87615601 414.2832892 128.41792973 421.78026569 114 425 C112.8140625 425.27714844 111.628125 425.55429687 110.40625 425.83984375 C86.82689918 430.81654619 62.47057229 428.22789912 39 424 C37.97068359 423.81808105 36.94136719 423.63616211 35.88085938 423.44873047 C7.87431708 418.38419898 -18.80198832 408.82912082 -45.56640625 399.390625 C-46.36967346 399.1085318 -47.17294067 398.8264386 -48.00054932 398.53579712 C-53.00893497 396.75978632 -57.89228847 394.80779314 -62.75352478 392.65814209 C-65.31126889 391.90880863 -66.52749472 392.09085778 -69 393 C-70.81235856 393.96739059 -70.81235856 393.96739059 -72.58203125 395.1875 C-73.25838623 395.63407959 -73.93474121 396.08065918 -74.6315918 396.54077148 C-75.3512915 397.02231689 -76.07099121 397.5038623 -76.8125 398 C-78.35561332 399.01348336 -79.89990451 400.02517537 -81.4453125 401.03515625 C-82.21649414 401.53934082 -82.98767578 402.04352539 -83.78222656 402.56298828 C-102.83267273 414.90677143 -122.85588504 425.72111643 -144 434 C-144.82177734 434.32339355 -145.64355469 434.64678711 -146.49023438 434.97998047 C-159.68527529 440.08900404 -173.09495068 443.44201829 -187 446 C-187.94875 446.18908936 -188.8975 446.37817871 -189.875 446.57299805 C-199.07701797 448.233739 -208.14960811 448.27210014 -217.46630859 448.20581055 C-220.12737607 448.18748364 -222.78809445 448.18530215 -225.44921875 448.18554688 C-236.84877555 448.16299852 -248.0533252 448.01782165 -259.1875 445.3125 C-260.26414917 445.05194824 -260.26414917 445.05194824 -261.36254883 444.78613281 C-280.33791673 439.9940167 -296.18946814 431.95503668 -310 418 C-310.66644531 417.35546875 -311.33289063 416.7109375 -312.01953125 416.046875 C-325.15710673 402.40514877 -330.43004084 382.6606608 -330.29785156 364.20483398 C-329.6850072 341.47852227 -320.50362521 322.49349123 -304.171875 306.703125 C-290.90657058 294.96256821 -274.23045512 288.24818817 -257 285 C-256.08089844 284.79503906 -255.16179687 284.59007812 -254.21484375 284.37890625 C-231.37374532 279.92135676 -205.46428542 282.62551569 -183 288 C-181.69054841 288.28848226 -180.38065825 288.57498181 -179.0703125 288.859375 C-170.33950875 290.81162486 -161.83362066 293.18952642 -153.33251953 295.98144531 C-149.57221932 297.21372485 -145.91564827 298.35000239 -142 299 C-141.90074219 298.36835938 -141.80148437 297.73671875 -141.69921875 297.0859375 C-140.73127288 292.81399762 -139.24688354 288.75984961 -137.8125 284.625 C-131.42075096 265.77939441 -127.05421886 246.46297146 -123 227 C-124.11181641 226.87044922 -124.11181641 226.87044922 -125.24609375 226.73828125 C-155.08656154 222.75711725 -185.63140191 208.51294905 -204.80078125 184.76953125 C-219.09475258 165.34114006 -224.5277694 142.40786148 -221.71582031 118.59326172 C-219.40776285 104.31486331 -213.38590055 92.00491369 -204 81 C-203.36191406 80.17242187 -202.72382812 79.34484375 -202.06640625 78.4921875 C-189.3054023 63.10178955 -166.38501608 53.9655544 -147 52 C-123.25472735 50.43243034 -101.42420912 54.42895572 -79 62 C-78.74605469 61.30390625 -78.49210937 60.6078125 -78.23046875 59.890625 C-67.59275798 34.90044732 -45.34430178 14.44357764 -20.578125 4.25390625 C-14.00168178 1.94927931 -7.00137445 0 0 0 Z " fill="#050505" transform="translate(1305,146)"/>
<path d="M0 0 C1.44317526 0.41210364 2.88653434 0.82356412 4.33007812 1.234375 C14.32753566 4.08834522 14.32753566 4.08834522 18.1875 5.375 C13.12808689 22.5237476 0.92721778 36.36767144 -11.8125 48.375 C-12.40675781 48.98214844 -13.00101563 49.58929688 -13.61328125 50.21484375 C-16.06499341 52.41104248 -17.84225771 53.39362594 -21.19067383 53.3293457 C-22.14482178 53.21679443 -23.09896973 53.10424316 -24.08203125 52.98828125 C-34.41107945 52.03001994 -44.76097353 52.26931995 -55.125 52.3125 C-57.23372289 52.31752579 -59.34244695 52.32208678 -61.45117188 52.32617188 C-66.57166732 52.33623179 -71.6919985 52.35582209 -76.8125 52.375 C-81.1025 64.255 -85.3925 76.135 -89.8125 88.375 C-86.80125 87.17875 -83.79 85.9825 -80.6875 84.75 C-55.05137371 74.84963963 -29.36391636 70.14658091 -1.9375 70.125 C-1.16215912 70.12432526 -0.38681824 70.12365051 0.41201782 70.12295532 C12.91875291 70.14018378 24.89685462 70.9418146 37.1875 73.375 C38.14124512 73.55192383 39.09499023 73.72884766 40.07763672 73.91113281 C56.64452252 76.98901726 72.44824391 81.38415703 88.1875 87.375 C83.64695945 92.20794635 78.24686731 95.30658058 72.625 98.75 C72.05592926 99.09893311 71.48685852 99.44786621 70.90054321 99.80737305 C52.31448232 111.16467832 33.21131349 121.38619666 12.58447266 128.53076172 C10.89895012 129.12441999 9.22208511 129.74295598 7.55224609 130.37939453 C1.05388073 132.84500854 -5.38598812 134.59151253 -12.1875 136 C-13.59515625 136.30550781 -13.59515625 136.30550781 -15.03125 136.6171875 C-17.95254309 137.23806178 -20.87893602 137.81509159 -23.8125 138.375 C-24.78445313 138.56698975 -25.75640625 138.75897949 -26.7578125 138.95678711 C-35.6843348 140.54342547 -44.48400554 140.71418752 -53.52197266 140.69067383 C-56.04503996 140.68752181 -58.56692095 140.71103505 -61.08984375 140.73632812 C-90.03055145 140.84808671 -118.77459618 133.45622524 -140.14453125 113.16015625 C-155.37616369 97.0548164 -158.33007991 79.02598277 -158.08984375 57.76953125 C-157.8828066 50.64683539 -156.80394847 44.89840788 -153.8125 38.375 C-153.17634766 36.86679687 -153.17634766 36.86679687 -152.52734375 35.328125 C-143.46643293 15.43955196 -126.50822968 3.21752969 -106.671875 -4.6015625 C-102.10340719 -6.23672448 -97.5483116 -7.56819406 -92.8125 -8.625 C-91.89855469 -8.83125 -90.98460937 -9.0375 -90.04296875 -9.25 C-60.50107747 -14.82540281 -28.45993293 -8.25155938 0 0 Z " fill="#EDEDED" transform="translate(1140.8125,446.625)"/>
<path d="M0 0 C11.87709174 10.8314787 18.32269626 27.83655911 19.22827148 43.66162109 C19.91112761 63.40840888 18.06547234 82.94176468 11.10546875 101.515625 C10.72519531 102.54429687 10.34492187 103.57296875 9.953125 104.6328125 C-5.0607917 142.74895119 -35.37695947 168.62758115 -71.89453125 185.515625 C-78.11811025 188.1745943 -84.46797307 190.40472296 -90.89453125 192.515625 C-92.62896484 193.11117187 -92.62896484 193.11117187 -94.3984375 193.71875 C-106.59700662 197.73005862 -119.09242114 199.74130932 -131.89453125 200.515625 C-131.31752573 192.81146399 -129.97797608 185.38852264 -128.3828125 177.8359375 C-128.13210495 176.62912323 -127.8813974 175.42230896 -127.62309265 174.17892456 C-126.82255686 170.33180169 -126.01483532 166.48622748 -125.20703125 162.640625 C-124.68378976 160.129001 -124.16099982 157.61728289 -123.63867188 155.10546875 C-119.40093292 134.76395859 -115.05900383 114.4444912 -110.64453125 94.140625 C-110.49449142 93.44363495 -110.3444516 92.7466449 -110.18986511 92.02853394 C-109.32115724 88.09537396 -108.23502927 84.31370271 -106.89453125 80.515625 C-95.16590986 85.17025726 -87.80253924 104.78960715 -82.94042969 115.64599609 C-82.24555185 117.26372046 -81.56784671 118.88880797 -80.89453125 120.515625 C-78.62856836 116.11699116 -78.91585853 113.31013278 -79.89453125 108.515625 C-80.95861681 105.89013974 -82.04255071 103.45875658 -83.33203125 100.953125 C-83.68185059 100.26347656 -84.03166992 99.57382812 -84.39208984 98.86328125 C-86.93779958 93.9969092 -89.81026476 89.46885447 -93.01953125 85.015625 C-93.43920166 84.43167969 -93.85887207 83.84773438 -94.29125977 83.24609375 C-96.08258429 80.80468894 -97.90280689 78.50702753 -100.00390625 76.32421875 C-101.83208593 74.38683365 -103.00193138 73.02899833 -103.89453125 70.515625 C-103.36488624 65.87154255 -101.64162908 61.82482073 -99.89453125 57.515625 C-99.48589844 56.3090625 -99.07726563 55.1025 -98.65625 53.859375 C-92.95907337 37.03841772 -84.58970808 20.92771034 -72.89453125 7.515625 C-72.30285156 6.8246875 -71.71117187 6.13375 -71.1015625 5.421875 C-52.12555327 -15.13171219 -21.67059713 -16.97902456 0 0 Z " fill="#EDEDED" transform="translate(1369.89453125,166.484375)"/>
<path d="M0 0 C0.8448999 0.20520264 1.6897998 0.41040527 2.56030273 0.62182617 C7.49215913 1.87177729 12.00559766 3.4271159 16.625 5.5625 C15.00169052 10.61669601 13.25822197 15.57230703 11.22875977 20.47729492 C2.2569382 42.38988514 -2.16270244 65.48910545 -6.76708984 88.60797119 C-8.97532661 99.64270574 -11.37048392 110.63783201 -13.75994873 121.63449097 C-14.30649225 124.15049846 -14.85127436 126.66687463 -15.39453125 129.18359375 C-15.56559387 129.97595932 -15.73665649 130.76832489 -15.91290283 131.58470154 C-17.33075869 138.21847467 -18.5782025 144.87684732 -19.76831055 151.55493164 C-20.375 154.5625 -20.375 154.5625 -21.375 156.5625 C-45.75490422 153.36045796 -68.69152984 144.84718827 -87.375 128.5625 C-88.05691406 128.02367187 -88.73882813 127.48484375 -89.44140625 126.9296875 C-103.88284093 115.22958191 -112.98458624 96.85142037 -115.375 78.5625 C-116.83355295 58.0057816 -113.08631023 38.65240529 -99.44580078 22.65795898 C-73.57999627 -6.00624619 -35.31917119 -8.59669203 0 0 Z " fill="#EDEDED" transform="translate(1205.375,209.4375)"/>
<path d="M0 0 C18.15 0 36.3 0 55 0 C55 1.32 55 2.64 55 4 C50.71 4.66 46.42 5.32 42 6 C41.67 33.06 41.34 60.12 41 88 C44.63 88.33 48.26 88.66 52 89 C52.99 89.33 53.98 89.66 55 90 C55 90.99 55 91.98 55 93 C36.85 93 18.7 93 0 93 C0.495 91.02 0.495 91.02 1 89 C5.29 88.67 9.58 88.34 14 88 C14 74.47 14 60.94 14 47 C-4.15 47 -22.3 47 -41 47 C-41 60.53 -41 74.06 -41 88 C-37.37 88.33 -33.74 88.66 -30 89 C-29.01 89.33 -28.02 89.66 -27 90 C-27 90.99 -27 91.98 -27 93 C-45.15 93 -63.3 93 -82 93 C-82 92.01 -82 91.02 -82 90 C-76.4531674 88.44299436 -73.02793513 88 -67 88 C-67 60.94 -67 33.88 -67 6 C-71.62 5.34 -76.24 4.68 -81 4 C-81 3.01 -81 2.02 -81 1 C-63.18 1 -45.36 1 -27 1 C-27 1.99 -27 2.98 -27 4 C-31.29 4.66 -35.58 5.32 -40 6 C-40.33 18.21 -40.66 30.42 -41 43 C-22.85 43 -4.7 43 14 43 C14 30.46 14 17.92 14 5 C11.03 5 8.06 5 5 5 C1.9375 4.5 1.9375 4.5 0 4 C0 2.68 0 1.36 0 0 Z " fill="#050505" transform="translate(883,697)"/>
<path d="M0 0 C29.7 0 59.4 0 90 0 C93 18 93 18 93 26 C89.88712954 24.63345665 87.94483262 23.12314777 85.6875 20.59375 C85.08679687 19.93246094 84.48609375 19.27117188 83.8671875 18.58984375 C82.62239583 17.19661458 81.37760417 15.80338542 80.1328125 14.41015625 C79.53210937 13.74886719 78.93140625 13.08757813 78.3125 12.40625 C77.77238281 11.80103516 77.23226563 11.19582031 76.67578125 10.57226562 C72.76073931 6.89906194 69.32860251 6.72021871 64.046875 6.5859375 C62.83870117 6.55032715 61.63052734 6.5147168 60.38574219 6.47802734 C58.85594727 6.44402832 57.32615234 6.4100293 55.75 6.375 C50.8825 6.25125 46.015 6.1275 41 6 C41 18.54 41 31.08 41 44 C50.17522914 42.9805301 55.12192866 41.84555665 60.86328125 34.671875 C62.76292559 31.86094543 64.48299342 29.03401315 66 26 C66.66 26 67.32 26 68 26 C66.9676232 31.74599195 65.41523068 36.72641736 62.8046875 41.95703125 C61.75568143 44.25432902 61.75568143 44.25432902 62 48 C62.82230738 49.82906031 62.82230738 49.82906031 63.9375 51.625 C66.42691697 56.28715899 66.78619566 60.78317408 67 66 C65.55595897 64.10235531 64.13816181 62.20930825 62.82421875 60.21875 C57.01932607 51.44159268 51.78729678 50.69682419 41 48 C41 60.87 41 73.74 41 87 C47.166875 86.9175 53.33375 86.835 59.6875 86.75 C62.59502075 86.72631348 62.59502075 86.72631348 65.5612793 86.70214844 C67.10728924 86.67276833 68.65327263 86.64194067 70.19921875 86.609375 C70.9941272 86.60824707 71.78903564 86.60711914 72.60803223 86.60595703 C77.67080427 86.47579641 80.32655192 85.78514643 84 82 C85.62172307 80.14586783 85.62172307 80.14586783 86.97265625 78.1796875 C87.47990234 77.47972656 87.98714844 76.77976562 88.50976562 76.05859375 C89.54992372 74.59583054 90.58897631 73.13228061 91.62695312 71.66796875 C92.13291016 70.97058594 92.63886719 70.27320313 93.16015625 69.5546875 C93.83510132 68.60311768 93.83510132 68.60311768 94.52368164 67.63232422 C96.18545967 65.7949424 97.73700437 64.96582774 100 64 C99.37164101 73.83706828 97.63329026 83.20025844 96 93 C64.32 93 32.64 93 0 93 C0 92.01 0 91.02 0 90 C4.29 89.01 8.58 88.02 13 87 C13.33 60.27 13.66 33.54 14 6 C9.38 5.34 4.76 4.68 0 4 C0 2.68 0 1.36 0 0 Z " fill="#0B0B0B" transform="translate(1429,697)"/>
<path d="M0 0 C6.6 0 13.2 0 20 0 C21.54721547 3.68524528 23.08850621 7.3727777 24.625 11.0625 C24.87466522 11.66149109 25.12433044 12.26048218 25.38156128 12.87762451 C29.29474638 22.28257551 33.09831338 31.72887474 36.85003662 41.19937706 C37.59012463 43.0671151 38.33117236 44.93446958 39.07250977 46.80171204 C39.57033295 48.05586957 40.06813562 49.31003524 40.56591797 50.56420898 C40.93691683 51.49892076 40.93691683 51.49892076 41.31541061 52.4525156 C42.81380674 56.23011487 44.3047621 60.01055846 45.79098034 63.79296398 C46.96016415 66.76277403 48.13922374 69.72866578 49.31640625 72.6953125 C49.74412827 73.79102066 50.17185028 74.88672882 50.61253357 76.01564026 C51.01440384 77.02384323 51.41627411 78.0320462 51.83032227 79.07080078 C52.17829361 79.9537381 52.52626495 80.83667542 52.88478088 81.74636841 C54.01427115 84.02883909 55.04177357 85.39053199 57 87 C59.26393971 87.78356902 59.26393971 87.78356902 61.6875 88.1875 C62.89986328 88.42533203 62.89986328 88.42533203 64.13671875 88.66796875 C64.75160156 88.77753906 65.36648438 88.88710938 66 89 C66.33 90.32 66.66 91.64 67 93 C48.52 93 30.04 93 11 93 C11 92.01 11 91.02 11 90 C16.65710148 88.11429951 19.47469371 88 26 88 C22.37 78.76 18.74 69.52 15 60 C4.11 59.67 -6.78 59.34 -18 59 C-18.99 62.3 -19.98 65.6 -21 69 C-21.58114837 70.64776561 -22.18158475 72.28928976 -22.82421875 73.9140625 C-23.13037109 74.69394531 -23.43652344 75.47382812 -23.75195312 76.27734375 C-24.06068359 77.05207031 -24.36941406 77.82679688 -24.6875 78.625 C-25.16799805 79.84509766 -25.16799805 79.84509766 -25.65820312 81.08984375 C-26.43519691 83.06132051 -27.21706853 85.03087373 -28 87 C-24.37 87.99 -20.74 88.98 -17 90 C-17 90.99 -17 91.98 -17 93 C-26.24 93 -35.48 93 -45 93 C-44.67 91.68 -44.34 90.36 -44 89 C-41.49530203 88.20101032 -39.04555436 87.86365062 -36.4453125 87.4921875 C-33.459062 85.66990684 -33.50705633 84.99025455 -32.66235352 81.70532227 C-30.8791575 75.35105101 -28.44437113 69.3296683 -25.95703125 63.22265625 C-25.46974045 62.01669296 -24.98244965 60.81072968 -24.48039246 59.56822205 C-23.45179612 57.02313355 -22.4203314 54.47923536 -21.38647461 51.9362793 C-20.08614194 48.73781543 -18.7907777 45.5373719 -17.4973011 42.33613014 C-11.77536672 28.17662659 -5.96764884 14.05792249 0 0 Z " fill="#040404" transform="translate(1734,697)"/>
<path d="M0 0 C11.58688402 -0.02312228 23.17376259 -0.0409145 34.76066494 -0.05181217 C40.14033762 -0.05704125 45.51999458 -0.06413935 50.8996582 -0.07543945 C56.08674843 -0.08626745 61.27382349 -0.09227665 66.46092415 -0.09487724 C68.4445628 -0.09673165 70.42820058 -0.10035256 72.41183281 -0.10573006 C75.18009136 -0.11293932 77.94828638 -0.11399099 80.71655273 -0.11352539 C81.54517319 -0.11712067 82.37379364 -0.12071594 83.2275238 -0.12442017 C88.88594784 -0.11405216 88.88594784 -0.11405216 90 1 C90.40810965 3.50227813 90.75851647 5.98466321 91.0625 8.5 C91.19664307 9.58571289 91.19664307 9.58571289 91.33349609 10.69335938 C91.93715549 15.83078834 92.18485885 20.82395227 92 26 C88.72344492 24.59473786 86.84567314 22.97082527 84.5625 20.25 C83.95664063 19.53972656 83.35078125 18.82945312 82.7265625 18.09765625 C81.68211849 16.82872767 80.65160857 15.54789667 79.6484375 14.24609375 C76.00833454 9.56092897 72.50072251 7.31476756 66.56494141 6.56762695 C65.33952637 6.54144287 64.11411133 6.51525879 62.8515625 6.48828125 C61.64838379 6.45516846 60.44520508 6.42205566 59.20556641 6.38793945 C57.69397949 6.36304443 56.18239258 6.33814941 54.625 6.3125 C49.79875 6.209375 44.9725 6.10625 40 6 C40 18.54 40 31.08 40 44 C50.44709093 42.83921212 55.28705926 40.75783766 61.74609375 32.71484375 C63.32260333 30.55880728 64.72119025 28.34448454 66 26 C67.4450885 29.81981991 66.50914617 32.29370687 65.1875 36.0625 C64.83042969 37.10535156 64.47335937 38.14820313 64.10546875 39.22265625 C63 42 63 42 61 45 C60.34 45 59.68 45 59 45 C59.40992188 45.64066406 59.81984375 46.28132812 60.2421875 46.94140625 C64.34171833 53.52223205 67.48377999 59.0176302 67 67 C65.44841712 64.94368534 63.91503919 62.88055014 62.421875 60.78125 C55.77078699 51.70593366 51.5928374 50.31856748 40 48 C40 60.87 40 73.74 40 87 C46.14625 86.938125 52.2925 86.87625 58.625 86.8125 C60.55424316 86.80581299 62.48348633 86.79912598 64.47119141 86.79223633 C66.01468286 86.76577151 67.5581447 86.73749013 69.1015625 86.70703125 C69.89135498 86.71101929 70.68114746 86.71500732 71.49487305 86.71911621 C77.36381891 86.5691259 79.87842828 85.19210829 84 81 C85.53176685 79.38007471 85.53176685 79.38007471 86.66796875 77.80859375 C87.29541992 76.98004883 87.29541992 76.98004883 87.93554688 76.13476562 C88.34869141 75.57466797 88.76183594 75.01457031 89.1875 74.4375 C89.82461914 73.59155273 89.82461914 73.59155273 90.47460938 72.72851562 C92.24447175 70.37512164 93.99101553 68.01287983 95.67578125 65.59765625 C96.11277344 65.07042969 96.54976562 64.54320312 97 64 C97.66 64 98.32 64 99 64 C98.36630103 73.73895255 97.21339642 83.29282864 96 93 C63.99 93 31.98 93 -1 93 C-0.67 91.68 -0.34 90.36 0 89 C4.90251498 88.019497 8.80942241 88 14 88 C14 60.61 14 33.22 14 5 C10.7 5 7.4 5 4 5 C2.68 4.67 1.36 4.34 0 4 C0 2.68 0 1.36 0 0 Z " fill="#080808" transform="translate(1295,697)"/>
<path d="M0 0 C29.7 0 59.4 0 90 0 C93 21 93 21 93 25 C90.02363795 23.66420352 87.96048142 22.20765397 85.6875 19.875 C85.08292969 19.25882813 84.47835938 18.64265625 83.85546875 18.0078125 C81.42565856 15.3785021 79.17731835 12.61392647 76.96875 9.796875 C70.3126711 3.72188235 62.08452315 4.46424927 53.5625 4.3125 C46.8490625 4.1578125 46.8490625 4.1578125 40 4 C40 16.87 40 29.74 40 43 C48.48356515 42.05738165 52.72575966 41.36612661 59 36 C61.6864853 32.50756911 63.91597815 28.87821285 66 25 C67.42980469 28.79763411 66.52225653 31.19735185 65.1875 34.9375 C64.83042969 35.95714844 64.47335937 36.97679687 64.10546875 38.02734375 C63 41 63 41 61.71875 43.58203125 C60.73622853 46.00654503 60.73622853 46.00654503 61.86328125 48.359375 C62.34152344 49.14828125 62.81976562 49.9371875 63.3125 50.75 C66.02391769 55.65707658 66.73037751 59.42780186 67 65 C66.484375 64.34 65.96875 63.68 65.4375 63 C64.633125 62.01 63.82875 61.02 63 60 C62.49082031 59.34902344 61.98164062 58.69804688 61.45703125 58.02734375 C55.00536033 50.12884502 50.19065733 48.27383217 40 47 C40 60.2 40 73.4 40 87 C48.724375 86.8453125 48.724375 86.8453125 57.625 86.6875 C59.4498291 86.66260498 61.2746582 86.63770996 63.15478516 86.61206055 C64.61623645 86.57974713 66.07766477 86.5463701 67.5390625 86.51171875 C68.28567139 86.50547485 69.03228027 86.49923096 69.80151367 86.49279785 C74.56550696 86.36269873 77.86063571 85.59137175 82 83 C83.85484268 80.93596454 85.45779815 78.98590364 87.0625 76.75 C87.4944165 76.17096924 87.92633301 75.59193848 88.37133789 74.99536133 C90.63722917 71.94293404 92.80498527 68.83457477 94.9375 65.6875 C95.618125 64.800625 96.29875 63.91375 97 63 C97.99 63 98.98 63 100 63 C99.52261986 66.70856558 99.04277779 70.41680866 98.5625 74.125 C98.36043945 75.69507813 98.36043945 75.69507813 98.15429688 77.296875 C97.95610352 78.82441406 97.95610352 78.82441406 97.75390625 80.3828125 C97.63345947 81.31496582 97.5130127 82.24711914 97.38891602 83.20751953 C96.97962119 86.14632315 96.4877995 89.07320301 96 92 C64.32 92 32.64 92 0 92 C0 91.01 0 90.02 0 89 C5.23200131 86.90719948 7.87807293 87 14 87 C14 59.94 14 32.88 14 5 C11.69 4.67 9.38 4.34 7 4 C4.66666667 3.66666667 2.33333333 3.33333333 0 3 C0 2.01 0 1.02 0 0 Z " fill="#030303" transform="translate(970,698)"/>
<path d="M0 0 C19.14 0 38.28 0 58 0 C57.67 1.32 57.34 2.64 57 4 C52.71 4.66 48.42 5.32 44 6 C44 33.06 44 60.12 44 88 C64.18786185 89.45783837 64.18786185 89.45783837 82.8984375 82.37890625 C83.38570312 81.77949219 83.87296875 81.18007813 84.375 80.5625 C84.94347656 79.87285156 85.51195312 79.18320312 86.09765625 78.47265625 C89.16662311 74.48362951 92.1439641 70.42973667 95.08203125 66.34375 C95.71496094 65.5703125 96.34789062 64.796875 97 64 C97.66 64 98.32 64 99 64 C98.68783538 66.97920214 98.37527621 69.95836205 98.0625 72.9375 C97.97548828 73.76830078 97.88847656 74.59910156 97.79882812 75.45507812 C97.62284121 77.13021282 97.44526574 78.80518137 97.26611328 80.47998047 C97.08589046 82.18664096 96.91259202 83.8940444 96.74560547 85.60205078 C96.10884452 91.89115548 96.10884452 91.89115548 95 93 C92.04753646 93.09526806 89.11851579 93.12552452 86.16577148 93.11352539 C85.23903625 93.11367142 84.31230103 93.11381744 83.35748291 93.1139679 C80.27866313 93.11326838 77.19990303 93.10547421 74.12109375 93.09765625 C71.99259982 93.09579221 69.86410547 93.09436824 67.73561096 93.09336853 C62.1213768 93.08954228 56.50716832 93.07971108 50.89294434 93.06866455 C45.16886747 93.05845273 39.44478647 93.0538714 33.72070312 93.04882812 C22.48045744 93.03808891 11.24023085 93.0210112 0 93 C0 92.01 0 91.02 0 90 C4.29 89.01 8.58 88.02 13 87 C13.33 60.27 13.66 33.54 14 6 C9.38 5.34 4.76 4.68 0 4 C0 2.68 0 1.36 0 0 Z " fill="#080808" transform="translate(1568,697)"/>
<path d="M0 0 C18.81 0 37.62 0 57 0 C57 0.99 57 1.98 57 3 C52.38 3.66 47.76 4.32 43 5 C43 32.06 43 59.12 43 87 C63.25408099 88.59811697 63.25408099 88.59811697 82.83276367 81.36181641 C83.27338135 80.78093262 83.71399902 80.20004883 84.16796875 79.6015625 C84.66876953 78.95703125 85.16957031 78.3125 85.68554688 77.6484375 C86.18119141 76.98070312 86.67683594 76.31296875 87.1875 75.625 C87.94836914 74.635 87.94836914 74.635 88.72460938 73.625 C90.91526969 70.77231134 93.0765989 67.89813549 95.23828125 65.0234375 C95.81964844 64.35570312 96.40101562 63.68796875 97 63 C97.66 63 98.32 63 99 63 C98.71222885 65.58381753 98.41982455 68.16698493 98.125 70.75 C98.04636719 71.46027344 97.96773437 72.17054688 97.88671875 72.90234375 C97.14706619 79.33163141 96.06861278 85.58832334 95 92 C63.32 92 31.64 92 -1 92 C-1 91.01 -1 90.02 -1 89 C4.5468326 87.44299436 7.97206487 87 14 87 C14 59.94 14 32.88 14 5 C9.38 4.34 4.76 3.68 0 3 C0 2.01 0 1.02 0 0 Z " fill="#020202" transform="translate(1162,698)"/>
<path d="M0 0 C33.99 0 67.98 0 103 0 C107 20 107 20 107 26 C101.85129213 24.23541937 99.31075971 19.43458605 96.2421875 15.23046875 C91.94710969 9.52380638 88.21269311 6.44253862 81 5 C75.72 4.67 70.44 4.34 65 4 C65 31.39 65 58.78 65 87 C68.96 87.33 72.92 87.66 77 88 C78.485 88.495 78.485 88.495 80 89 C80 89.99 80 90.98 80 92 C61.19 92 42.38 92 23 92 C23 91.01 23 90.02 23 89 C24.54001707 88.65912666 26.08212406 88.32769047 27.625 88 C28.91277344 87.7215625 28.91277344 87.7215625 30.2265625 87.4375 C33 87 33 87 39 87 C39 59.61 39 32.22 39 4 C22.87180011 3.41488038 22.87180011 3.41488038 10.69140625 10.1640625 C9.98886719 10.97617187 9.28632812 11.78828125 8.5625 12.625 C7.80195312 13.5015625 7.04140625 14.378125 6.2578125 15.28125 C3.07413707 19.11487993 -0.0070842 23.01586128 -3 27 C-3.66 26.67 -4.32 26.34 -5 26 C-3.63716474 17.24578763 -1.86010743 8.68050135 0 0 Z " fill="#020202" transform="translate(664,698)"/>
<path d="M0 0 C6.31498061 6.49039673 6.39838182 13.71169014 6.36572266 22.2331543 C6.21439206 29.03400698 5.27396194 34.48668836 0.50390625 39.60546875 C-4.02827089 43.64034965 -7.89801202 44.30534016 -13.72265625 44.2109375 C-18.62370197 43.75698129 -21.34684461 41.65315539 -24.75 38.25 C-30.1526768 30.44613351 -29.7392316 21.09893709 -29 12 C-27.52082835 6.13928206 -24.75762997 1.80610397 -20 -2 C-13.34844015 -4.18912096 -5.81603129 -4.01583113 0 0 Z " fill="#EAEAEA" transform="translate(1475,866)"/>
<path d="M0 0 C19 0 19 0 25 4 C27.73935397 8.00610725 27.65190892 12.31440467 27 17 C24.62932422 21.8325314 21.90181096 24.76408623 17 27 C12.60756368 27.32459005 8.41635303 27.18025931 4 27 C4 32.94 4 38.88 4 45 C2.68 45 1.36 45 0 45 C0 30.15 0 15.3 0 0 Z " fill="#080808" transform="translate(786,864)"/>
<path d="M0 0 C2.31 0 4.62 0 7 0 C8.97958296 5.74608317 10.95497101 11.49358479 12.92651367 17.24243164 C13.59756689 19.19725295 14.26975756 21.15168418 14.94311523 23.10571289 C15.91169933 25.91710863 16.87616213 28.72988937 17.83984375 31.54296875 C18.14091537 32.41398727 18.441987 33.2850058 18.75218201 34.18241882 C20.08957769 38.09833089 21.35005376 41.89836188 22 46 C20.35 46 18.7 46 17 46 C15.68 41.71 14.36 37.42 13 33 C6.73 33 0.46 33 -6 33 C-7.32 37.29 -8.64 41.58 -10 46 C-11.65 46 -13.3 46 -15 46 C-12.53404961 36.06895774 -9.163526 26.46937827 -5.8125 16.8125 C-5.24772306 15.17654405 -4.68326747 13.54047711 -4.11914062 11.90429688 C-2.74979253 7.9349097 -1.37611403 3.96704636 0 0 Z " fill="#101010" transform="translate(946,863)"/>
<path d="M0 0 C2.31 0 4.62 0 7 0 C8.97958296 5.74608317 10.95497101 11.49358479 12.92651367 17.24243164 C13.59756689 19.19725295 14.26975756 21.15168418 14.94311523 23.10571289 C15.91169933 25.91710863 16.87616213 28.72988937 17.83984375 31.54296875 C18.14091537 32.41398727 18.441987 33.2850058 18.75218201 34.18241882 C20.08957769 38.09833089 21.35005376 41.89836188 22 46 C20.35 46 18.7 46 17 46 C16.32968281 44.0429132 15.66385317 42.08428887 15 40.125 C14.62875 39.03445313 14.2575 37.94390625 13.875 36.8203125 C13 34 13 34 13 32 C3.595 32.495 3.595 32.495 -6 33 C-7.32 37.29 -8.64 41.58 -10 46 C-11.65 46 -13.3 46 -15 46 C-12.53404961 36.06895774 -9.163526 26.46937827 -5.8125 16.8125 C-5.24772306 15.17654405 -4.68326747 13.54047711 -4.11914062 11.90429688 C-2.74979253 7.9349097 -1.37611403 3.96704636 0 0 Z " fill="#111111" transform="translate(1188,863)"/>
<path d="M0 0 C1.4540625 0.0309375 1.4540625 0.0309375 2.9375 0.0625 C6.57705928 7.7142401 9.27786656 15.59100749 11.93896484 23.62084961 C12.69244162 25.88988126 13.45715356 28.15492302 14.22265625 30.41992188 C14.70640749 31.86956548 15.18950424 33.3194277 15.671875 34.76953125 C15.89993835 35.44248734 16.12800171 36.11544342 16.36297607 36.80879211 C17.44976261 40.11832795 17.9375 42.5278365 17.9375 46.0625 C16.6175 46.0625 15.2975 46.0625 13.9375 46.0625 C13.26489649 44.29391309 12.59961605 42.52253984 11.9375 40.75 C11.56625 39.76386719 11.195 38.77773438 10.8125 37.76171875 C9.9375 35.0625 9.9375 35.0625 9.9375 32.0625 C3.3375 32.0625 -3.2625 32.0625 -10.0625 32.0625 C-10.7225 35.0325 -11.3825 38.0025 -12.0625 41.0625 C-12.68146629 42.74746378 -13.32367922 44.42653971 -14.0625 46.0625 C-15.3825 46.0625 -16.7025 46.0625 -18.0625 46.0625 C-16.8264718 40.01226556 -15.2513003 34.19261658 -13.27734375 28.34375 C-13.01619278 27.55979858 -12.75504181 26.77584717 -12.48597717 25.96813965 C-11.93934884 24.33057482 -11.39053495 22.69373801 -10.83959961 21.05761719 C-9.99340797 18.54290983 -9.15541489 16.02557388 -8.31835938 13.5078125 C-7.7843318 11.91129849 -7.24984354 10.31493848 -6.71484375 8.71875 C-6.46379379 7.96468872 -6.21274384 7.21062744 -5.9540863 6.43371582 C-3.80620706 0.0776777 -3.80620706 0.0776777 0 0 Z " fill="#111111" transform="translate(847.0625,862.9375)"/>
<path d="M0 0 C2.31 0 4.62 0 7 0 C7.42821045 0.83136475 7.8564209 1.66272949 8.29760742 2.51928711 C9.90861624 5.64536216 11.52090796 8.77076884 13.1340332 11.89575195 C13.82789646 13.24054417 14.52126836 14.58559004 15.21411133 15.9309082 C16.21822605 17.88041325 17.22418854 19.82895575 18.23046875 21.77734375 C18.83270264 22.94515381 19.43493652 24.11296387 20.05541992 25.31616211 C22.30557972 29.5788942 24.65911523 33.78640741 27 38 C27.33 25.79 27.66 13.58 28 1 C29.32 0.67 30.64 0.34 32 0 C33 1 33 1 33.12025452 2.82862854 C33.11803391 3.62582809 33.11581329 4.42302765 33.11352539 5.24438477 C33.11344986 6.14524307 33.11337433 7.04610138 33.11329651 7.97425842 C33.10813522 8.95341721 33.10297394 9.93257599 33.09765625 10.94140625 C33.0962413 11.93881332 33.09482635 12.9362204 33.09336853 13.96385193 C33.08775114 17.16343124 33.07519571 20.36294169 33.0625 23.5625 C33.05748724 25.72591045 33.05292395 27.88932199 33.04882812 30.05273438 C33.03777607 35.36851325 33.02102104 40.68425171 33 46 C30.69 46 28.38 46 26 46 C24.18556688 42.6885556 22.37385332 39.37562989 20.5625 36.0625 C20.06556641 35.15564453 19.56863281 34.24878906 19.05664062 33.31445312 C14.28673855 24.58463235 9.65603815 15.79473874 5 7 C4.67 19.87 4.34 32.74 4 46 C2.68 46 1.36 46 0 46 C0 30.82 0 15.64 0 0 Z " fill="#1B1B1B" transform="translate(1233,863)"/>
<path d="M0 0 C3.09484783 1.54742392 3.33390396 4.00753297 4.53125 7.1953125 C4.88612488 8.13381546 4.88612488 8.13381546 5.24816895 9.09127808 C5.74901652 10.41995325 6.24643992 11.74992337 6.74072266 13.08105469 C7.490199 15.09861608 8.2499435 17.11205463 9.01171875 19.125 C11.23788591 25.0488701 13.2579735 30.90290724 15 37 C5.43 37 -4.14 37 -14 37 C-9.38234871 24.64778279 -4.7042575 12.31947648 0 0 Z " fill="#E8E8E8" transform="translate(1732,714)"/>
<path d="M0 0 C19.62162162 0 19.62162162 0 24.75 4.3125 C31.29805128 12.13378347 31.65538162 19.01713356 31 29 C29.91277194 34.47611192 28.06192414 39.05413084 24 43 C18 46 18 46 0 46 C0 30.82 0 15.64 0 0 Z M4 5 C4 17.21 4 29.42 4 42 C14.19296983 42.68957553 14.19296983 42.68957553 22 39 C27.08551595 33.56375882 26.33418454 26.69812967 26.21484375 19.6484375 C25.95098664 15.16766397 25.4182502 12.7524572 23 9 C17.24516015 3.54237822 17.24516015 3.54237822 4 5 Z " fill="#141414" transform="translate(1295,863)"/>
<path d="M0 0 C6.31498061 6.49039673 6.39838182 13.71169014 6.36572266 22.2331543 C6.21439206 29.03400698 5.27396194 34.48668836 0.50390625 39.60546875 C-4.02827089 43.64034965 -7.89801202 44.30534016 -13.72265625 44.2109375 C-18.62370197 43.75698129 -21.34684461 41.65315539 -24.75 38.25 C-30.1526768 30.44613351 -29.7392316 21.09893709 -29 12 C-27.52082835 6.13928206 -24.75762997 1.80610397 -20 -2 C-13.34844015 -4.18912096 -5.81603129 -4.01583113 0 0 Z M-22 5 C-24.50034903 9.656127 -24.33243374 14.22412117 -24.3125 19.375 C-24.32861328 20.2 -24.34472656 21.025 -24.36132812 21.875 C-24.36622309 28.04265431 -23.462267 32.92216625 -19.5 37.875 C-16.36795781 40.22403164 -12.88060633 40.40612328 -9.0625 40.3359375 C-5.43918117 39.74577572 -3.19131955 37.77840204 -1 35 C3.09221068 27.49761375 3.41222593 18.43631058 1.2734375 10.203125 C-0.08961943 6.81210532 -1.49809552 4.48714259 -4.125 1.9375 C-10.65128087 -0.19063507 -17.23308529 -0.51174513 -22 5 Z " fill="#111111" transform="translate(1475,866)"/>
<path d="M0 0 C1.32 0 2.64 0 4 0 C4 6.93 4 13.86 4 21 C11.59 21 19.18 21 27 21 C27 14.4 27 7.8 27 1 C28.32 1 29.64 1 31 1 C31 15.85 31 30.7 31 46 C29.68 46 28.36 46 27 46 C27 39.07 27 32.14 27 25 C19.41 25 11.82 25 4 25 C4 31.93 4 38.86 4 46 C2.35 46 0.7 46 -1 46 C-1.02527062 39.60962769 -1.04283317 33.21926817 -1.05493164 26.82885742 C-1.05997308 24.65307127 -1.06680607 22.47728853 -1.07543945 20.30151367 C-1.08751338 17.18146933 -1.09323005 14.06146962 -1.09765625 10.94140625 C-1.10281754 9.96224747 -1.10797882 8.98308868 -1.11329651 7.97425842 C-1.11337204 7.07340012 -1.11344757 6.17254181 -1.11352539 5.24438477 C-1.115746 4.44718521 -1.11796661 3.64998566 -1.12025452 2.82862854 C-1 1 -1 1 0 0 Z " fill="#131313" transform="translate(1388,863)"/>
<path d="M0 0 C7.92 0 15.84 0 24 0 C24 1.32 24 2.64 24 4 C17.4 4 10.8 4 4 4 C4 9.61 4 15.22 4 21 C9.61 21 15.22 21 21 21 C21 22.32 21 23.64 21 25 C15.39 25 9.78 25 4 25 C4 30.61 4 36.22 4 42 C10.93 42 17.86 42 25 42 C25 43.32 25 44.64 25 46 C16.75 46 8.5 46 0 46 C0 30.82 0 15.64 0 0 Z " fill="#111111" transform="translate(1043,863)"/>
<path d="M0 0 C7.59 0 15.18 0 23 0 C23 0.99 23 1.98 23 3 C16.73 3 10.46 3 4 3 C4 8.61 4 14.22 4 20 C9.61 20 15.22 20 21 20 C21 21.32 21 22.64 21 24 C15.39 24 9.78 24 4 24 C4 29.61 4 35.22 4 41 C10.93 41 17.86 41 25 41 C25 42.32 25 43.64 25 45 C16.75 45 8.5 45 0 45 C0 30.15 0 15.3 0 0 Z " fill="#040404" transform="translate(1553,864)"/>
<path d="M0 0 C0.763125 0.495 1.52625 0.99 2.3125 1.5 C1.3225 2.985 1.3225 2.985 0.3125 4.5 C-0.326875 4.335 -0.96625 4.17 -1.625 4 C-9.2339938 2.73176736 -9.2339938 2.73176736 -16.3125 5.0625 C-17.93589676 7.53511522 -17.93589676 7.53511522 -17.9375 10.9375 C-16.17248889 15.96778168 -13.32207464 17.21873269 -8.6875 19.5 C-7.97207031 19.83644531 -7.25664063 20.17289063 -6.51953125 20.51953125 C-2.18963219 22.55856439 0.92816646 24.12872184 3.3125 28.5 C3.92392615 33.3149809 3.82280438 35.45976415 1.6875 39.8125 C-1.53386996 43.45773442 -4.13832157 45.15355125 -9.015625 45.81640625 C-15.32431071 46.1163591 -19.2876152 44.69993173 -24.6875 41.5 C-24.3575 40.18 -24.0275 38.86 -23.6875 37.5 C-22.924375 37.809375 -22.16125 38.11875 -21.375 38.4375 C-16.3457519 40.42580739 -12.07584415 41.3398645 -6.6875 40.5 C-3.51765739 38.49820005 -3.51765739 38.49820005 -1.6875 35.5 C-1.22885661 32.28949624 -1.65678805 30.59213585 -2.6875 27.5 C-4.96675561 26.42813452 -4.96675561 26.42813452 -7.6875 25.5 C-9.57733812 24.54978727 -11.45228665 23.569475 -13.3125 22.5625 C-14.25351563 22.05847656 -15.19453125 21.55445313 -16.1640625 21.03515625 C-19.75746647 18.84907612 -21.34782237 17.51903289 -22.6875 13.5 C-23.05695059 8.51241703 -22.86977193 5.45040654 -19.6875 1.5 C-14.34970778 -3.3373742 -6.2645698 -2.54829958 0 0 Z " fill="#0D0D0D" transform="translate(1672.6875,864.5)"/>
<path d="M0 0 C3.6875 1.5 3.6875 1.5 6 3 C5.01 4.485 5.01 4.485 4 6 C3.360625 5.835 2.72125 5.67 2.0625 5.5 C-5.5464938 4.23176736 -5.5464938 4.23176736 -12.625 6.5625 C-14.2265604 9.02936371 -14.2265604 9.02936371 -14.375 12.375 C-12.27028313 17.92379901 -8.08706916 19.35765185 -3 22 C-1.48968075 22.87832404 0.01156035 23.77258756 1.5 24.6875 C2.1290625 25.06261719 2.758125 25.43773437 3.40625 25.82421875 C5 27 5 27 7 30 C7.42740092 35.29977145 7.52351458 38.74748241 4 43 C-1.73917261 46.91943495 -6.10279452 47.77192561 -13 47 C-15.92908678 45.92506271 -18.29813463 44.60110541 -21 43 C-20.67 41.68 -20.34 40.36 -20 39 C-19.236875 39.309375 -18.47375 39.61875 -17.6875 39.9375 C-12.6473405 41.9301212 -8.39839118 42.82108397 -3 42 C0.2739971 40.14358251 0.2739971 40.14358251 2 37 C2.29122656 33.51569847 2.29122656 33.51569847 1 30 C-1.35394601 27.97345141 -4.00988207 26.74440757 -6.8125 25.4375 C-12.42961803 22.74627634 -16.0029619 20.76412442 -19 15 C-19.66061986 11.36659076 -19.77090289 9.18220778 -17.71875 6.03515625 C-12.39000488 -0.35150151 -8.20107035 -0.69207345 0 0 Z " fill="#0D0D0D" transform="translate(1111,863)"/>
<path d="M0 0 C1.69576172 -0.03867187 1.69576172 -0.03867187 3.42578125 -0.078125 C6.96526337 0.27794266 8.82009621 1.20569711 11.6875 3.25 C10.6975 4.735 10.6975 4.735 9.6875 6.25 C9.13835938 6.09273437 8.58921875 5.93546875 8.0234375 5.7734375 C3.12138196 4.67498358 -2.625496 4.02044393 -7.29296875 6.15625 C-10.96653039 8.98625304 -12.14567302 11.90186896 -13.3125 16.25 C-14.1365246 24.42317419 -14.13302033 32.30464505 -9.3125 39.25 C-6.27490787 42.11401544 -3.84373912 42.41309103 0.1875 42.5 C3.4433223 42.39129141 6.52220267 42.06685092 9.6875 41.25 C9.6875 42.57 9.6875 43.89 9.6875 45.25 C4.32061836 47.67625752 -0.49665809 47.9427694 -6.3125 47.25 C-11.81973152 44.54644998 -15.39900113 40.90864188 -17.40234375 35.078125 C-19.49166172 26.2904357 -19.89536756 15.23305962 -15.3125 7.25 C-10.4638121 2.16561199 -7.08077851 0.09622802 0 0 Z " fill="#0D0D0D" transform="translate(1006.3125,862.75)"/>
<path d="M0 0 C11.97506679 -0.4381122 11.97506679 -0.4381122 17 3 C18.84438013 6.68876027 18.48788734 10.97330313 18 15 C16.11484777 17.57637471 14.80665143 18.59667428 12 20 C9.95944995 20.07065617 7.91665743 20.08421976 5.875 20.0625 C2.966875 20.0315625 2.966875 20.0315625 0 20 C0 13.4 0 6.8 0 0 Z " fill="#E8E8E8" transform="translate(790,867)"/>
<path d="M0 0 C2.475 0.495 2.475 0.495 5 1 C5 14.53 5 28.06 5 42 C11.6 42 18.2 42 25 42 C25 43.32 25 44.64 25 46 C16.75 46 8.5 46 0 46 C0 30.82 0 15.64 0 0 Z " fill="#1F1F1F" transform="translate(1603,863)"/>
<path d="M0 0 C1.32 0 2.64 0 4 0 C4 13.53 4 27.06 4 41 C10.6 41 17.2 41 24 41 C24 42.32 24 43.64 24 45 C16.08 45 8.16 45 0 45 C0 30.15 0 15.3 0 0 Z " fill="#040404" transform="translate(889,864)"/>
<path d="M0 0 C9.57 0 19.14 0 29 0 C29 0.99 29 1.98 29 3 C25.04 3 21.08 3 17 3 C17 16.86 17 30.72 17 45 C15.68 45 14.36 45 13 45 C13 31.14 13 17.28 13 3 C8.71 3 4.42 3 0 3 C0 2.01 0 1.02 0 0 Z " fill="#0A0A0A" transform="translate(1500,864)"/>
<path d="M0 0 C2.10412898 2.10412898 2.58158372 3.23084857 3.5078125 5.9921875 C3.77207031 6.77980469 4.03632812 7.56742188 4.30859375 8.37890625 C4.57800781 9.20261719 4.84742188 10.02632812 5.125 10.875 C5.40214844 11.69097656 5.67929687 12.50695312 5.96484375 13.34765625 C6.22652344 14.13785156 6.48820313 14.92804687 6.7578125 15.7421875 C7.11576904 16.82282471 7.11576904 16.82282471 7.48095703 17.92529297 C8 20 8 20 8 24 C3.05 24 -1.9 24 -7 24 C-5.875 16.125 -5.875 16.125 -4.58984375 12.59765625 C-4.18862305 11.48100586 -4.18862305 11.48100586 -3.77929688 10.34179688 C-3.50150391 9.58962891 -3.22371094 8.83746094 -2.9375 8.0625 C-2.65583984 7.28326172 -2.37417969 6.50402344 -2.08398438 5.70117188 C-1.39532294 3.79859875 -0.69850097 1.89898275 0 0 Z " fill="#E3E3E3" transform="translate(949,867)"/>
<path d="M0 0 C2.10412898 2.10412898 2.58158372 3.23084857 3.5078125 5.9921875 C3.77207031 6.77980469 4.03632812 7.56742188 4.30859375 8.37890625 C4.57800781 9.20261719 4.84742188 10.02632812 5.125 10.875 C5.40214844 11.69097656 5.67929688 12.50695312 5.96484375 13.34765625 C6.22652344 14.13785156 6.48820312 14.92804687 6.7578125 15.7421875 C7.11576904 16.82282471 7.11576904 16.82282471 7.48095703 17.92529297 C8 20 8 20 8 24 C3.05 24 -1.9 24 -7 24 C-5.875 16.125 -5.875 16.125 -4.58984375 12.59765625 C-4.18862305 11.48100586 -4.18862305 11.48100586 -3.77929688 10.34179688 C-3.50150391 9.58962891 -3.22371094 8.83746094 -2.9375 8.0625 C-2.65583984 7.28326172 -2.37417969 6.50402344 -2.08398438 5.70117188 C-1.39532294 3.79859875 -0.69850097 1.89898275 0 0 Z " fill="#E4E4E4" transform="translate(1191,867)"/>
<path d="M0 0 C0.66 0 1.32 0 2 0 C4.73981931 7.93711014 7.40554307 15.73781407 9 24 C3.72 24 -1.56 24 -7 24 C-4.85015386 15.93807699 -2.49368152 7.96205928 0 0 Z " fill="#E4E4E4" transform="translate(846,867)"/>
<path d="M0 0 C0.625 1.8125 0.625 1.8125 1 4 C-1 7 -1 7 -4 8 C-2.87548273 5.0280615 -1.77706209 2.66559313 0 0 Z " fill="#282828" transform="translate(1361,723)"/>
</svg>
